<svg width="202" height="204" viewBox="0 0 202 204" fill="none" xmlns="http://www.w3.org/2000/svg">
<rect width="201.467" height="203.273" rx="56" fill="#15192B"/>
<path d="M128.676 107.234C137.707 106.574 147.076 112.558 150.311 120.941C150.526 121.499 150.728 122.051 150.905 122.622C152.309 127.289 152.168 132.284 150.501 136.865C149.996 138.22 149.331 139.441 148.658 140.716C149.757 141.721 150.987 143.02 152.065 144.097L158.479 150.503L163.654 155.655C164.699 156.691 166.881 158.638 167.453 159.865C167.346 160.101 167.119 160.583 166.953 160.754C165.805 161.947 161.747 166.294 160.611 166.911C159.68 166.391 154.378 161.003 153.433 159.946C151.097 157.613 148.743 155.292 146.412 152.954C145.817 152.358 145.127 151.836 144.524 151.246C143.415 150.159 142.325 149.051 141.228 147.95C140.483 148.307 139.708 148.781 138.91 149.161C136.569 150.264 134.043 150.926 131.46 151.117C124.95 151.559 119.587 149.471 114.834 145.357C104.948 136.804 105.362 120.235 115.707 112.259C119.897 109.029 123.468 107.564 128.676 107.234ZM130.775 142.842C138.333 142.286 144.008 135.711 143.446 128.161C142.883 120.611 136.297 114.948 128.739 115.516C121.189 116.083 115.528 122.653 116.09 130.195C116.651 137.736 123.224 143.397 130.775 142.842Z" fill="#F8FF20"/>
<path d="M96.9579 55.3771C101.413 55.1527 105.418 55.8581 109.114 58.4199C113.731 61.6206 117.051 66.6423 117.071 72.3743C117.111 83.8213 113.987 96.0359 107.292 105.351C95.651 121.547 75.6649 124.2 57.8723 129.147C56.9687 129.398 55.5791 128.902 54.8395 128.374C53.9474 127.737 53.3571 126.763 53.2074 125.677C52.9923 124.202 53.801 122.155 55.0791 121.583C57.9273 120.308 62.1023 119.388 65.1258 118.647C75.4792 116.108 86.7365 113.387 95.0345 106.334C96.9594 104.697 99.4693 101.77 100.941 99.7776C105.585 93.1521 107.649 85.6122 108.377 77.6309C108.485 75.7576 108.815 73.617 108.553 71.7461C107.765 66.1002 102.669 62.9844 97.3134 63.6989C95.9391 63.8732 94.6239 64.3633 93.471 65.1305C89.9197 67.4593 89.6201 70.8648 88.8537 74.7505C88.5623 76.2348 88.1854 77.701 87.725 79.1419C83.7479 91.7302 72.9804 99.7612 60.0038 101.21C56.6806 101.581 49.8014 102.986 49.2447 98.0592C49.1073 96.9298 49.4361 95.7931 50.1555 94.9109C51.8464 92.8637 54.6328 93.4394 57.2524 93.2154C68.9001 92.2192 77.2594 86.6223 80.1817 74.9542C81.4884 69.7368 81.2833 66.3013 84.8386 61.9218C87.8475 58.2186 92.2081 55.8638 96.9579 55.3771Z" fill="#F8FF20"/>
<path d="M98.5098 41.3471C101.681 41.3254 105.555 41.8086 108.518 42.9781C110.903 43.9195 113.734 45.1357 115.921 46.5104C123.865 51.594 129.193 59.8865 130.51 69.2178C130.956 72.3781 130.867 77.2993 130.702 80.5392C130.394 86.6199 129.081 92.8431 131.579 98.6806C129.29 98.6525 126.849 98.6834 124.599 99.1235C124.107 99.2197 123.556 99.2692 123.056 99.3267C122.739 98.7848 122.553 97.6579 122.431 97.0221C120.913 88.9537 122.964 80.908 122.551 72.742C121.869 59.2735 110.831 49.1786 97.2597 49.8181C95.5878 49.9989 94.3338 50.1192 92.7157 50.5565C84.1542 52.8705 78.4731 59.1338 76.0203 67.5313C75.6723 68.867 75.2562 70.4004 74.9966 71.7462C73.3974 80.0374 67.6149 86.8101 58.7734 87.1446C56.5757 87.2277 53.6615 87.5088 51.8401 85.9468C50.1244 84.4755 50.1398 81.739 51.6389 80.1329C53.339 78.3031 55.8398 79.0243 58.0828 78.9525C65.3054 78.721 66.3211 72.3854 67.6841 66.7932C68.0121 65.4581 68.4139 64.1422 68.8877 62.8514C70.4404 58.5034 72.8602 54.515 76.0003 51.1278C79.3706 47.5134 82.2841 45.7686 86.7532 43.8392C91.0763 41.9727 93.7842 41.5206 98.5098 41.3471Z" fill="#F8FF20"/>
<path d="M98.2828 69.0555C99.4085 68.9963 100.136 69.1052 101.12 69.7027C101.819 70.0911 102.873 71.4647 102.893 72.3092C103.082 80.2671 100.861 88.881 96.3575 95.4796C94.1395 98.7298 92.0028 100.834 89.0684 103.218C86.6912 105.149 84.8336 106.513 82.0552 107.77C73.689 112.043 64.5782 113.876 55.4343 115.623C51.7409 115.846 49.3338 112.461 51.3251 109.225C52.3522 107.534 54.5017 107.379 56.2833 107.014C59.2493 106.406 62.2634 105.831 65.2004 105.082C66.3108 104.799 67.4486 104.325 68.5598 104.017C80.6144 100.678 91.2893 93.4383 93.8097 80.4688C94.0586 79.2127 94.3491 77.8611 94.4757 76.5884C94.7926 73.4002 94.1575 69.8684 98.2828 69.0555Z" fill="#F8FF20"/>
<path d="M102.445 151.636C107.376 151.653 111.306 153.134 115.758 155.062C117.903 155.992 120.66 156.5 121.254 159.137C121.498 160.263 121.282 161.44 120.655 162.407C118.116 166.258 113.151 162.761 110.008 161.616C108.049 160.902 106.564 160.244 104.423 159.988C101.722 159.665 99.1232 160.465 96.4938 161.017C94.6187 161.513 92.5553 161.951 90.6409 162.411C87.4225 163.134 84.1696 163.966 80.8695 164.193C77.0288 164.455 75.0239 159.878 77.6944 157.178C77.9963 156.873 78.3689 156.502 78.7863 156.378C81.0115 155.72 83.3656 155.6 85.6245 155.074C88.9907 154.333 92.3206 153.486 95.679 152.739C97.6664 152.297 100.452 151.672 102.445 151.636Z" fill="#F8FF20"/>
<path d="M99.5489 123.714L99.6613 123.751L99.7279 123.951C99.2447 126.223 99.2855 129.922 99.4426 132.245C96.8674 133.213 93.5726 134.011 90.9224 134.941C89.6362 135.358 88.412 135.92 87.1138 136.306C81.1668 138.073 75.1609 139.739 69.1114 141.119C66.9721 141.606 64.8488 142.085 62.6988 142.506C61.0843 142.822 60.1994 142.611 58.87 141.666C56.5071 139.569 57.1238 135.532 60.1402 134.492C61.8184 133.913 64.1464 133.569 65.9155 133.173C69.3069 132.42 72.6798 131.587 76.0313 130.674C79.8449 129.63 83.6428 128.53 87.424 127.374C91.4841 126.102 95.4191 124.76 99.5489 123.714Z" fill="#F8FF20"/>
<path d="M100.205 137.915C100.276 137.918 100.543 137.959 100.569 138.026C101.426 140.223 102.56 143.724 104.112 145.511C102.466 145.906 100.88 146.217 99.2176 146.652C92.9725 148.283 86.7562 150.288 80.5073 151.859C77.7943 152.541 72.0428 154.173 69.2713 154.309C65.4584 153.869 64.0247 149.689 66.754 147.065C67.9233 145.941 70.0303 145.909 71.5686 145.565C81.2113 143.408 90.5863 140.14 100.205 137.915Z" fill="#F8FF20"/>
<path d="M95.2794 27.6177H102.412C103.489 27.9522 106.185 28.2007 107.547 28.4714C112.059 29.3459 116.419 30.875 120.487 33.0103C136.468 41.4891 145.4 58.2641 144.628 76.1662C144.508 79.0716 144.344 81.975 144.135 84.8754C143.919 87.873 142.747 92.6556 146.395 93.949C147.267 94.2583 148.114 95.5071 148.363 96.3677C148.667 97.4156 148.537 98.5416 148.002 99.4925C146.522 102.065 143.631 102.14 141.325 100.683C139.75 99.6885 138.847 98.803 137.801 97.3249C135.059 93.4482 135.407 89.0113 135.887 84.542C136.038 82.8768 136.13 80.8618 136.237 79.1645C136.555 74.1129 136.648 69.5997 135.407 64.6401C133.37 56.4937 128.885 49.4956 122.347 44.2223C120.715 42.9062 120.002 42.2514 118.169 41.1516C109.603 36.1112 99.3951 34.6408 89.7524 37.0582C85.8798 38.0316 81.6264 39.8282 78.2664 42.0088C77.457 42.5676 76.6658 43.2828 75.8924 43.8777C69.0829 49.1157 64.086 56.6029 62.2989 65.0353C62.0018 66.4372 61.3485 69.0917 60.6318 70.2691C60.0791 71.1898 59.1779 71.8486 58.1323 72.0967C57.0549 72.3547 55.9691 72.1571 55.028 71.5817C54.0166 70.9589 53.2979 69.9567 53.0331 68.7998C52.8665 68.0785 52.9382 67.598 53.1781 66.9047C54.0287 64.4462 54.5022 61.874 55.2627 59.3882C56.3491 55.9047 57.8823 52.5764 59.8241 49.4861C65.9 39.4811 75.629 32.2249 86.9586 29.2482C88.4547 28.8353 89.9726 28.5054 91.5052 28.26C92.5899 28.0831 94.1543 27.8895 95.1706 27.6445L95.2794 27.6177Z" fill="#F8FF20"/>
</svg>
